<svg version="1.1" id="Layer_1" xmlns="http://www.w3.org/2000/svg" xmlns:xlink="http://www.w3.org/1999/xlink" x="0px" y="0px"
	 width="100%" viewBox="0 0 352 480" enable-background="new 0 0 352 480" xml:space="preserve">
<path fill="#000000" opacity="1.000000" stroke="none" 
	d="
M353.000000,322.562500 
	C343.412323,323.867706 333.823608,325.398132 322.683258,322.022919 
	C325.817596,327.974762 326.904968,332.912292 325.352600,338.286652 
	C322.362915,348.636871 314.884308,354.612488 305.880432,359.188721 
	C293.057739,365.705872 279.065674,368.158722 265.044708,369.995972 
	C245.137863,372.604492 225.096191,372.355194 205.336868,368.980743 
	C185.754044,365.636475 166.919403,359.527588 149.547577,349.530853 
	C148.884552,349.149323 148.305283,348.376984 146.668182,349.155945 
	C159.826492,357.806610 173.787262,363.560059 188.809387,367.106537 
	C187.704300,369.947937 185.863983,369.796173 184.314651,369.978546 
	C163.627136,372.413330 142.880646,374.141083 122.040817,373.092590 
	C101.341316,372.051208 80.983368,368.996094 61.893318,360.297882 
	C55.778038,357.511505 50.276314,353.743866 46.144737,348.319672 
	C41.225086,341.860809 39.346825,334.700897 41.580940,326.694885 
	C41.842186,325.758728 42.257038,324.789490 41.345436,323.298920 
	C30.275181,324.776459 19.006889,324.890717 7.957993,319.877441 
	C10.301004,315.424988 14.173807,316.311920 17.797060,315.599091 
	C15.136481,310.737274 10.423514,306.682526 12.499598,300.431061 
	C16.053169,299.887390 16.947090,303.288208 19.478390,304.440460 
	C19.891699,303.177368 20.271072,301.956421 20.689566,300.749054 
	C23.403687,292.918793 25.934053,291.501007 33.858326,293.121094 
	C39.883343,294.352875 45.952309,295.370850 51.973312,296.620758 
	C56.397308,297.539124 59.217098,294.970367 62.043159,292.329987 
	C72.144531,282.892273 82.219673,273.426514 92.332275,264.000916 
	C93.913277,262.527283 95.445511,260.824158 97.327873,259.880890 
	C106.756859,255.155899 107.950920,246.563782 108.786545,237.383514 
	C110.263382,221.158875 112.082199,204.959549 114.115753,188.794662 
	C114.797050,183.379013 116.557083,178.092941 118.837990,173.064850 
	C121.774414,166.591736 126.421852,161.891693 132.964432,158.917130 
	C140.111069,155.667953 147.627823,153.461792 154.927322,150.653717 
	C162.487213,147.745468 169.788345,137.005508 169.438660,129.362030 
	C169.423737,129.035690 169.447906,128.612762 169.263077,128.402786 
	C163.907898,122.319443 161.695724,114.411476 157.290833,107.797089 
	C153.992249,102.843925 152.115997,97.887726 155.137314,92.141129 
	C156.212753,90.095642 155.822815,87.870697 155.555984,85.758781 
	C154.011124,73.530670 160.277481,64.038727 167.365768,55.520576 
	C175.047531,46.289238 195.542068,46.859528 201.886917,56.602715 
	C207.975006,65.951607 213.099487,76.277039 211.777863,88.227371 
	C211.549164,90.295296 212.134613,91.814247 212.978989,93.726585 
	C215.283783,98.946457 212.938538,103.693222 210.021301,108.101311 
	C205.627960,114.739876 203.265274,122.565689 197.944962,128.675827 
	C197.078598,129.670822 198.103027,130.893921 198.231400,132.016495 
	C199.744904,145.252197 208.510712,151.286362 220.296555,154.414993 
	C222.700760,155.053192 224.991013,156.110855 227.382324,156.808914 
	C243.269547,161.446655 250.203003,173.125793 252.141632,188.546570 
	C254.649063,208.491638 256.964691,228.460983 259.310577,248.426010 
	C259.676697,251.541992 260.727478,253.917313 263.463440,255.899475 
	C275.765656,264.812256 286.668427,275.354736 297.612610,285.840363 
	C310.229492,297.928589 310.253174,297.907837 327.358734,294.304016 
	C329.313507,293.892151 331.238312,293.314972 333.206146,292.992096 
	C341.075867,291.700836 343.667816,293.411163 345.688477,301.115540 
	C345.940735,302.077332 346.146851,303.051208 346.438354,304.291748 
	C348.462708,302.887360 350.409180,301.537018 352.677826,300.093323 
	C353.000000,303.030609 353.000000,306.061188 352.774353,309.783569 
	C350.871826,312.401245 349.194916,314.327179 347.432495,316.351318 
	C349.551758,317.117279 351.251556,316.251160 353.000000,316.000000 
	C353.000000,318.041656 353.000000,320.083344 353.000000,322.562500 
M136.820068,247.135239 
	C136.398117,248.745331 135.817215,250.332367 135.579559,251.969208 
	C133.805130,264.190857 127.246513,272.859131 116.770851,279.296478 
	C106.278900,285.743805 95.863594,292.294983 85.098343,298.289185 
	C80.557556,300.817505 75.584961,302.686798 71.250816,306.373474 
	C72.176964,306.671082 72.613228,306.923920 73.056847,306.937531 
	C91.020569,307.489105 108.986000,307.988007 126.947990,308.589783 
	C129.296814,308.668457 130.186264,307.262390 130.997086,305.573456 
	C133.518127,300.322144 136.170532,295.125549 138.466370,289.776581 
	C141.084152,283.677521 144.873901,277.651703 145.024155,271.049683 
	C145.288834,259.419708 142.095612,248.131882 138.747253,236.753006 
	C138.173050,239.943375 137.598831,243.133759 136.820068,247.135239 
M246.619888,276.950226 
	C239.794388,272.018616 234.783386,265.847534 232.943268,257.397614 
	C231.366547,250.157303 229.636978,242.950287 227.975006,235.728546 
	C225.400284,244.918640 223.920547,254.209137 221.865494,263.370575 
	C220.548431,269.242157 221.454208,274.593445 223.868790,279.845520 
	C227.475082,287.689819 231.382324,295.401886 234.774765,303.335571 
	C236.255737,306.799011 238.225616,307.963287 241.922089,307.868774 
	C258.882111,307.435150 275.848846,307.267426 292.812378,306.961853 
	C293.706177,306.945770 294.856995,307.363525 295.651489,305.765717 
	C278.724121,297.606232 262.645935,288.015808 246.619888,276.950226 
M170.122513,203.624451 
	C174.540939,204.683289 177.972549,202.046158 181.775543,200.086273 
	C183.693298,204.728531 179.485336,207.586761 179.075348,211.523605 
	C182.115707,211.786484 184.854507,212.040421 187.793121,211.380707 
	C186.974503,207.729095 184.006577,204.890717 184.743256,201.174835 
	C186.584518,200.358658 187.498520,201.640305 188.632187,202.189163 
	C192.789886,204.202148 196.947083,204.906006 200.673676,201.466110 
	C203.778397,198.600235 204.869934,192.292709 202.220001,188.498062 
	C196.996338,181.017914 189.803680,175.379425 183.115906,168.881302 
	C177.014587,175.266769 171.201828,180.953232 165.866119,187.056717 
	C161.387115,192.180237 163.299759,200.124512 170.122513,203.624451 
M196.109924,251.608566 
	C198.192444,249.773102 200.274963,247.937637 202.779388,245.730316 
	C194.813278,239.599045 189.193375,231.750259 183.432663,222.977158 
	C178.445953,232.410568 171.943848,239.373123 164.495224,245.998245 
	C172.706879,251.912903 177.830002,259.660858 183.411209,267.845215 
	C187.690018,262.193176 190.859329,256.506470 196.109924,251.608566 
M27.337845,302.414978 
	C27.288609,303.074219 27.209194,303.732880 27.195555,304.392853 
	C27.146049,306.788330 27.746376,308.723053 30.626654,308.837006 
	C32.423317,308.908112 34.502010,309.318359 35.405121,307.201324 
	C36.294598,305.116180 35.525017,303.081299 33.685833,302.002472 
	C31.833355,300.915833 29.707516,298.104858 27.337845,302.414978 
M336.019836,300.613556 
	C334.120392,301.336975 332.525085,302.512848 331.423248,304.195557 
	C330.447876,305.685059 330.007599,307.495544 332.047485,308.376617 
	C334.715485,309.528992 337.476227,309.175568 338.934021,306.440491 
	C340.250183,303.971100 340.640503,301.252075 336.019836,300.613556 
M263.210602,326.017059 
	C263.342194,325.785614 264.431213,325.993622 263.541534,325.306488 
	C263.434204,325.223602 263.215271,325.250183 263.055664,325.274902 
	C255.106308,326.506622 247.317535,328.368835 239.854568,331.550873 
	C247.456268,329.759918 255.057968,327.968964 263.210602,326.017059 
M168.443451,333.114868 
	C165.278885,334.486603 162.036819,335.471497 158.484467,335.119049 
	C161.047379,336.164948 163.575134,335.843018 166.055176,335.006775 
	C168.405365,334.214294 170.806671,333.477600 173.007462,332.364410 
	C175.265991,331.222015 177.626343,331.185852 180.081238,331.327484 
	C175.995956,329.225739 172.629593,331.328979 168.443451,333.114868 
z"/>
<path fill="#000000" opacity="1.000000" stroke="none" 
	d="
M109.984619,180.950058 
	C112.338211,188.677673 111.839722,196.376389 110.456680,203.955429 
	C108.186913,204.283737 107.822220,203.044067 107.317627,202.025787 
	C98.958504,185.156998 95.814713,167.472397 98.503761,148.725830 
	C102.930672,117.863831 120.395172,96.607262 147.151581,82.160530 
	C148.874741,81.230141 150.953491,78.528198 153.250015,81.243874 
	C154.741852,83.008003 152.845688,90.386955 150.737732,91.447266 
	C142.026611,95.829002 134.231384,101.444069 127.451797,108.457870 
	C126.881126,109.048256 126.361374,109.687874 125.757721,110.899986 
	C131.641815,104.552528 135.423920,109.539902 138.695404,113.213043 
	C142.148636,117.090263 144.727676,116.878967 148.053802,113.439415 
	C149.535233,111.907448 151.480606,110.806000 153.281097,109.607857 
	C154.280838,108.942589 155.464951,108.519325 156.394104,109.740059 
	C157.287628,110.913979 156.721176,111.953720 155.803146,112.807686 
	C155.197632,113.370934 154.489700,113.825500 153.819077,114.317078 
	C139.872101,124.540459 130.789001,137.691971 129.217545,155.326706 
	C128.975830,158.039246 127.719749,159.564911 124.433258,159.986115 
	C124.063637,155.160172 124.856445,150.644653 126.119156,146.329330 
	C127.245140,142.481247 126.023308,141.033386 122.446678,139.837540 
	C118.740288,138.598343 114.691841,138.149506 111.160164,135.454636 
	C106.136909,150.448257 105.579987,165.314117 109.812172,180.672882 
	C109.997902,180.983170 109.984619,180.950058 109.984619,180.950058 
z"/>
<path fill="#000000" opacity="1.000000" stroke="none" 
	d="
M243.119583,113.088844 
	C236.632980,103.857094 227.682861,97.632118 217.834946,92.565674 
	C214.475128,90.837158 212.219025,84.733513 214.160461,81.718567 
	C215.281708,79.977303 216.725266,80.668053 218.092316,81.380325 
	C231.825684,88.535889 244.327332,97.325150 253.282867,110.186050 
	C273.180878,138.761292 274.843933,169.036087 260.956604,200.550018 
	C260.503021,201.579361 260.139587,202.778641 258.004150,203.300583 
	C255.942871,197.290634 254.696228,191.154251 256.494507,184.887466 
	C260.971069,169.287125 261.106934,153.728500 256.810638,138.110443 
	C256.461670,136.841843 255.876358,135.638245 255.100128,133.831451 
	C252.063217,125.865204 248.288513,119.073341 243.119583,113.088844 
z"/>
<path fill="#000000" opacity="1.000000" stroke="none" 
	d="
M242.819000,112.918625 
	C248.288513,119.073341 252.063217,125.865204 254.869476,133.542770 
	C255.464340,137.968582 252.108475,138.095535 249.550522,138.975479 
	C240.568436,142.065308 240.548569,142.050140 241.288345,151.307556 
	C241.433456,153.123428 241.763504,154.923798 241.955841,156.736862 
	C242.082382,157.929825 242.065353,159.220093 240.628967,159.579041 
	C239.361801,159.895721 238.293762,159.168793 237.796967,158.051041 
	C237.338501,157.019577 237.072357,155.842010 236.996246,154.710327 
	C235.884705,138.180161 227.782791,125.652061 215.038208,115.615227 
	C213.285873,114.235199 208.755615,113.192268 211.213852,110.051781 
	C213.373550,107.292648 215.726410,111.105019 217.874390,112.234657 
	C219.171860,112.917007 220.268417,114.013008 221.382980,115.004395 
	C223.188980,116.610832 224.831207,116.752617 226.451721,114.743530 
	C226.967346,114.104279 227.660049,113.607933 228.271133,113.045570 
	C235.466431,106.424118 235.466385,106.424072 242.819000,112.918625 
z"/>
<path fill="#000000" opacity="1.000000" stroke="none" 
	d="
M133.861618,155.870270 
	C131.885498,155.223892 131.923141,153.911743 132.049652,152.526306 
	C133.499542,136.646027 142.667191,125.684624 154.883469,116.660774 
	C157.575867,114.671959 159.443085,115.357086 160.740585,118.347351 
	C161.334778,119.716751 161.912979,121.201706 162.890350,122.278549 
	C169.063629,129.080032 165.893387,135.811890 162.830933,142.509674 
	C161.640320,145.113602 159.052017,146.254333 156.595367,147.238037 
	C149.183487,150.205872 141.705490,153.008652 133.861618,155.870270 
z"/>
<path fill="#000000" opacity="1.000000" stroke="none" 
	d="
M200.295746,130.233505 
	C202.292191,126.012657 204.178009,122.136528 206.189926,118.327003 
	C207.505203,115.836525 209.409805,115.146881 211.933990,116.815186 
	C224.463013,125.095963 232.896286,136.046875 234.227371,151.473480 
	C234.638977,156.243744 233.748383,156.671829 229.184235,154.833786 
	C224.720673,153.036209 220.354431,150.815262 215.726807,149.644104 
	C205.649033,147.093613 201.669754,139.982803 200.295746,130.233505 
z"/>
<path fill="#000000" opacity="1.000000" stroke="none" 
	d="
M301.843109,422.788879 
	C296.738525,425.570099 291.527588,424.055389 286.468445,424.216278 
	C277.834412,424.490906 277.828522,424.286682 277.896332,433.116272 
	C277.909149,434.781738 277.871429,436.448883 277.933044,438.112427 
	C278.063202,441.627350 276.631348,443.245941 272.894104,443.162231 
	C269.049164,443.076111 268.692352,440.881226 268.724670,437.893219 
	C268.811157,429.898376 268.662720,421.900055 268.813232,413.907013 
	C268.992523,404.387634 274.744019,398.844452 284.269012,398.780548 
	C289.432678,398.745911 294.597473,398.822083 299.760376,398.750977 
	C302.574005,398.712280 304.149597,399.683380 304.160919,402.766937 
	C304.171814,405.739471 302.855225,407.000122 299.932434,406.962769 
	C295.435883,406.905273 290.937714,406.966644 286.440277,406.987671 
	C279.167023,407.021698 278.431366,407.740417 277.810577,416.061249 
	C283.900787,416.061249 289.968475,416.205475 296.025604,416.014404 
	C300.650421,415.868500 303.150452,417.304901 301.843109,422.788879 
z"/>
<path fill="#000000" opacity="1.000000" stroke="none" 
	d="
M255.085144,406.906219 
	C251.958832,406.754944 249.298492,406.624390 246.641190,406.448364 
	C243.388306,406.232941 241.164398,407.746887 239.953217,410.641022 
	C238.673920,413.697968 239.109985,415.930084 243.121918,415.924377 
	C248.454041,415.916779 253.786316,415.945099 259.118256,415.912109 
	C261.846863,415.895233 263.510773,416.682678 263.482117,419.903381 
	C263.453522,423.116821 262.185883,424.392944 258.990723,424.302246 
	C254.162399,424.165131 249.322144,424.409607 244.496368,424.233795 
	C240.701569,424.095490 238.924530,425.468536 239.157166,429.439362 
	C239.351669,432.759125 239.150024,436.101379 239.146164,439.433655 
	C239.142487,442.598206 237.218826,443.219482 234.519547,443.227325 
	C231.534714,443.236023 230.436325,442.056396 230.517258,439.000916 
	C230.742218,430.507477 230.553421,422.002777 230.793808,413.510071 
	C231.061356,404.056885 236.590057,398.829590 245.981964,398.746674 
	C251.146515,398.701050 256.313904,398.721375 261.474121,398.542236 
	C264.087097,398.451538 265.736755,399.181305 265.718323,402.051605 
	C265.700562,404.819489 265.035583,407.048950 261.550629,406.916077 
	C259.554047,406.839935 257.552063,406.905151 255.085144,406.906219 
z"/>
<path fill="#000000" opacity="1.000000" stroke="none" 
	d="
M121.290092,443.171448 
	C117.115036,443.362793 115.918915,441.398132 115.940849,437.936798 
	C116.013481,426.476471 116.041016,415.013916 115.877525,403.555176 
	C115.820839,399.581909 117.695564,398.279175 121.294556,398.227600 
	C125.174034,398.172028 125.405983,400.649719 125.378685,403.555603 
	C125.295967,412.358276 125.402061,421.164429 125.188751,429.963287 
	C125.098434,433.688568 126.548241,435.000366 130.170456,434.832123 
	C134.812103,434.616547 139.471329,434.811890 144.119858,434.700104 
	C146.916321,434.632843 148.524445,435.481537 148.525177,438.617096 
	C148.525879,441.671082 147.465042,443.240601 144.179443,443.197937 
	C136.706284,443.100830 129.230911,443.174622 121.290092,443.171448 
z"/>
<path fill="#000000" opacity="1.000000" stroke="none" 
	d="
M160.671173,412.296204 
	C161.159439,407.819275 159.589859,405.855804 155.359589,406.341248 
	C153.879990,406.511017 152.360840,406.305695 150.869583,406.410950 
	C148.289444,406.592987 146.764297,405.871368 146.754593,402.885559 
	C146.744797,399.870514 148.060242,398.702545 150.974487,398.738159 
	C156.799469,398.809357 162.626282,398.781769 168.451889,398.736511 
	C172.279297,398.706787 176.107956,398.624939 179.932236,398.471405 
	C182.628433,398.363190 183.997711,399.501099 184.002350,402.243408 
	C184.006683,404.807739 183.002502,406.135681 180.214371,406.403381 
	C176.715714,406.739288 172.247070,404.465363 169.933090,407.931152 
	C167.952438,410.897705 169.326935,415.076569 169.263550,418.714203 
	C169.150452,425.204041 169.156693,431.698120 169.246979,438.188507 
	C169.293152,441.508728 167.981201,443.102814 164.541733,443.068512 
	C161.108459,443.034271 160.518066,441.222351 160.578293,438.224487 
	C160.748764,429.738464 160.659592,421.247223 160.671173,412.296204 
z"/>
<path fill="#000000" opacity="1.000000" stroke="none" 
	d="
M76.705307,421.012421 
	C76.694756,417.184326 76.593056,413.850189 76.701721,410.522949 
	C76.797371,407.593933 75.647148,406.157837 72.617172,406.294037 
	C70.623283,406.383667 68.620628,406.256775 66.622467,406.278778 
	C64.198296,406.305481 62.883419,405.266510 62.869743,402.722809 
	C62.856968,400.346649 63.779175,398.840881 66.319397,398.822174 
	C76.478340,398.747406 86.637505,398.683472 96.796654,398.669891 
	C99.191750,398.666687 99.868851,400.350281 99.872307,402.381409 
	C99.875740,404.394775 99.238731,406.073761 96.864288,406.190063 
	C94.537369,406.303986 92.194458,406.408112 89.874084,406.264984 
	C86.367630,406.048676 85.152168,407.681488 85.194763,411.023773 
	C85.309380,420.016571 85.210281,429.011993 85.310013,438.005127 
	C85.344536,441.118469 84.658646,443.134003 80.943932,443.116821 
	C77.255325,443.099762 76.530937,441.147461 76.616676,437.997375 
	C76.766174,432.504639 76.688225,427.005737 76.705307,421.012421 
z"/>
<path fill="#000000" opacity="1.000000" stroke="none" 
	d="
M199.186066,433.894775 
	C200.438263,434.433655 201.415695,434.702576 202.287827,435.168610 
	C204.887482,436.557770 204.874252,438.931885 204.106873,441.232910 
	C203.289627,443.683472 201.285767,442.873779 199.487183,442.460449 
	C189.032837,440.057861 182.154938,428.861755 184.103821,417.375061 
	C185.819412,407.263397 191.144699,400.961029 199.089005,399.608734 
	C201.134583,399.260529 203.276962,398.881531 203.930832,401.573395 
	C204.465317,403.773804 204.217926,405.722015 201.751495,407.015839 
	C191.168640,412.567169 189.762787,425.970856 199.186066,433.894775 
z"/>
<path fill="#000000" opacity="1.000000" stroke="none" 
	d="
M222.824951,433.613251 
	C219.860092,438.623016 215.999741,441.716339 210.440567,442.446289 
	C208.526489,442.697632 206.594955,443.004944 206.061249,440.544952 
	C205.593155,438.387329 205.414276,435.809692 208.173203,435.181061 
	C215.855072,433.430695 217.410034,427.410126 217.512344,421.138184 
	C217.619141,414.590851 215.625259,408.591644 208.331772,406.202911 
	C206.160019,405.491608 205.831436,403.679932 206.197174,401.748840 
	C206.612488,399.556030 208.301224,399.585541 210.076874,399.710052 
	C216.562103,400.164917 222.599503,405.051147 224.856567,412.113159 
	C227.178253,419.377380 226.926697,426.518372 222.824951,433.613251 
z"/>
<path fill="#000000" opacity="1.000000" stroke="none" 
	d="
M103.374176,399.165649 
	C110.836578,398.321259 111.185455,398.626434 111.153542,405.659943 
	C111.105270,416.301147 110.999435,426.942291 110.998238,437.583466 
	C110.997849,441.043762 110.223213,443.320801 105.997864,443.221252 
	C101.689133,443.119720 101.839043,440.380737 101.836082,437.434204 
	C101.825066,426.460419 101.767891,415.486603 101.769447,404.512817 
	C101.769699,402.729645 101.372833,400.803772 103.374176,399.165649 
z"/>
<path fill="#000000" opacity="1.000000" stroke="none" 
	d="
M110.008682,180.996674 
	C109.972046,180.020996 109.968933,179.027374 109.870010,178.043396 
	C109.247322,171.849792 109.240288,171.850494 115.584999,171.596405 
	C116.508247,175.026062 115.150650,181.021622 112.744888,184.128159 
	C110.856735,184.234070 110.958138,182.529129 110.162170,181.214691 
	C109.984619,180.950058 109.997902,180.983170 110.008682,180.996674 
z"/>
<path fill="#000000" opacity="1.000000" stroke="none" 
	d="
M250.951874,176.947510 
	C250.705246,175.047256 249.134338,173.252441 251.229202,172.155304 
	C252.694382,171.387955 254.537659,171.570068 256.021088,172.375519 
	C257.621521,173.244492 257.469666,174.989395 257.015839,176.358429 
	C256.222717,178.751022 256.846741,181.705322 254.370972,183.586975 
	C251.538742,182.345840 251.790222,179.569763 250.951874,176.947510 
z"/>
</svg>